<svg width="100" height="100" viewBox="0 0 40 40" fill="none" xmlns="http://www.w3.org/2000/svg">
<g clip-path="url(#clip0_34_13)">
<path fill-rule="evenodd" clip-rule="evenodd" d="M18.9729 6.97841C19.6079 7.17039 20.284 7.18079 20.9246 7.00841L31.4679 25.6451C30.9798 26.1153 30.6368 26.7157 30.4796 27.3751H9.51625C9.34757 26.6828 8.97617 26.0567 8.44958 25.5767L18.9713 6.97841H18.9729ZM17.4379 6.03674C17.4679 6.07007 17.5013 6.10174 17.5329 6.13341L6.98792 24.7751C6.93819 24.7618 6.88818 24.7495 6.83792 24.7384V15.2601C7.31735 15.1528 7.76918 14.9469 8.1646 14.6553C8.56003 14.3638 8.89037 13.993 9.13458 13.5667C9.3778 13.1429 9.5314 12.6736 9.58587 12.1879C9.64034 11.7023 9.59452 11.2106 9.45125 10.7434L17.4379 6.03841V6.03674ZM23.3879 4.64507C23.5568 4.11474 23.5989 3.55216 23.5108 3.00259C23.4227 2.45302 23.2068 1.9318 22.8806 1.48085C22.5543 1.02991 22.1268 0.661825 21.6324 0.406215C21.138 0.150605 20.5904 0.014601 20.0339 0.0091432C19.4773 0.00368536 18.9272 0.128926 18.4279 0.374791C17.9286 0.620656 17.4939 0.980282 17.1589 1.42474C16.8238 1.8692 16.5978 2.38609 16.4989 2.93383C16.4 3.48156 16.4311 4.04486 16.5896 4.57841L8.59792 9.28841C8.2144 8.89509 7.74488 8.5961 7.22627 8.41494C6.70765 8.23378 6.15408 8.17539 5.60909 8.24436C5.06409 8.31333 4.54252 8.50779 4.08539 8.81243C3.62825 9.11708 3.24802 9.52362 2.97458 10.0001C2.70149 10.4771 2.54203 11.0107 2.50858 11.5594C2.47513 12.108 2.5686 12.657 2.78172 13.1637C2.99485 13.6704 3.32189 14.1212 3.73746 14.481C4.15303 14.8408 4.64594 15.1 5.17792 15.2384V24.7634C4.6471 24.9032 4.15556 25.1632 3.74133 25.5234C3.32709 25.8836 3.00127 26.3342 2.78908 26.8405C2.57688 27.3467 2.48399 27.895 2.51761 28.4429C2.55122 28.9908 2.71043 29.5236 2.98292 30.0001C3.25598 30.4754 3.6354 30.881 4.09145 31.1851C4.54749 31.4893 5.06778 31.6837 5.61152 31.7531C6.15527 31.8225 6.7077 31.7651 7.22553 31.5853C7.74337 31.4055 8.21253 31.1082 8.59625 30.7167L16.5879 35.4267C16.4924 35.7543 16.4441 36.0939 16.4446 36.4351C16.4435 36.9027 16.5346 37.366 16.7128 37.7983C16.8909 38.2307 17.1526 38.6237 17.4828 38.9548C17.813 39.2859 18.2052 39.5487 18.6371 39.7281C19.069 39.9074 19.532 39.9999 19.9996 40.0001C20.5686 39.9988 21.129 39.8613 21.634 39.5991C22.139 39.3369 22.5738 38.9575 22.9021 38.4928C23.2305 38.0281 23.4427 37.4915 23.5211 36.9279C23.5996 36.3643 23.5419 35.7901 23.3529 35.2534L31.2713 30.5867C31.6445 31.0086 32.1128 31.3355 32.6375 31.5403C33.1622 31.7452 33.7281 31.8221 34.2885 31.7648C34.8488 31.7074 35.3874 31.5175 35.8597 31.2106C36.3321 30.9037 36.7245 30.4888 37.0046 30.0001C37.2854 29.5158 37.4481 28.9721 37.4795 28.4131C37.511 27.8542 37.4103 27.2957 37.1857 26.7829C36.961 26.2702 36.6187 25.8175 36.1865 25.4617C35.7543 25.1059 35.2443 24.857 34.6979 24.7351V15.2684C35.2448 15.1463 35.7553 14.8975 36.1884 14.542C36.6215 14.1865 36.9651 13.7342 37.1914 13.2217C37.4178 12.7091 37.5206 12.1506 37.4916 11.591C37.4627 11.0314 37.3027 10.4865 37.0246 10.0001C36.7478 9.5195 36.3624 9.11034 35.8993 8.80532C35.4361 8.50029 34.908 8.30786 34.3572 8.2434C33.8064 8.17894 33.2481 8.24424 32.727 8.43409C32.2059 8.62393 31.7365 8.93305 31.3562 9.33674L23.3896 4.64341L23.3879 4.64507ZM22.3896 6.20674L22.5146 6.08674L30.5279 10.8084C30.3973 11.2672 30.3599 11.7475 30.418 12.221C30.4761 12.6945 30.6285 13.1515 30.8663 13.5651C31.0992 13.9734 31.4112 14.3311 31.7841 14.6173C32.157 14.9035 32.5833 15.1124 33.0379 15.2317V24.7651C32.9943 24.777 32.951 24.7898 32.9079 24.8034L22.3896 6.20674V6.20674ZM30.5479 29.3034L22.5913 33.9934C22.2597 33.6385 21.8586 33.3556 21.4131 33.1624C20.9675 32.9691 20.4869 32.8696 20.0013 32.8701C18.9913 32.8701 18.0813 33.2901 17.4346 33.9667L9.45958 29.2667C9.47958 29.2017 9.49792 29.1367 9.51292 29.0701H30.4829C30.5029 29.1484 30.5246 29.2267 30.5496 29.3034H30.5479Z" fill="#272626"/>
</g>
<defs>
<clipPath id="clip0_34_13">
<rect width="100" height="100" fill="white"/>
</clipPath>
</defs>
</svg>
