<svg width="32" height="32" viewBox="0 0 32 32" fill="none" xmlns="http://www.w3.org/2000/svg">
<path fill-rule="evenodd" clip-rule="evenodd" d="M1.33398 3.784C1.33398 3.13404 1.59218 2.51071 2.05177 2.05112C2.51136 1.59153 3.13469 1.33333 3.78465 1.33333H28.214C28.5361 1.33281 28.8551 1.39582 29.1528 1.51876C29.4506 1.64169 29.7211 1.82215 29.949 2.04978C30.1769 2.27742 30.3576 2.54776 30.4809 2.84535C30.6041 3.14293 30.6675 3.4619 30.6673 3.784V28.2133C30.6677 28.5355 30.6045 28.8546 30.4814 29.1523C30.3583 29.45 30.1777 29.7205 29.95 29.9484C29.7223 30.1763 29.4518 30.357 29.1542 30.4803C28.8565 30.6035 28.5375 30.6668 28.2153 30.6667H3.78465C3.46271 30.6667 3.14393 30.6032 2.84651 30.48C2.5491 30.3568 2.27888 30.1761 2.0513 29.9484C1.82371 29.7207 1.64323 29.4504 1.52015 29.1529C1.39707 28.8554 1.33381 28.5366 1.33398 28.2147V3.784ZM12.9447 12.5173H16.9167V14.512C17.49 13.3653 18.9567 12.3333 21.1607 12.3333C25.386 12.3333 26.3873 14.6173 26.3873 18.808V26.5707H22.1113V19.7627C22.1113 17.376 21.538 16.0293 20.082 16.0293C18.062 16.0293 17.222 17.4813 17.222 19.7627V26.5707H12.9447V12.5173ZM5.61132 26.388H9.88865V12.3333H5.61132V26.3867V26.388ZM10.5007 7.74933C10.5087 8.11556 10.4435 8.47972 10.309 8.82042C10.1744 9.16112 9.97312 9.47151 9.71696 9.73338C9.4608 9.99524 9.15492 10.2033 8.81726 10.3453C8.4796 10.4874 8.11697 10.5606 7.75065 10.5606C7.38433 10.5606 7.0217 10.4874 6.68405 10.3453C6.34639 10.2033 6.0405 9.99524 5.78434 9.73338C5.52818 9.47151 5.32691 9.16112 5.19233 8.82042C5.05776 8.47972 4.99259 8.11556 5.00065 7.74933C5.01648 7.03047 5.31316 6.34639 5.82717 5.84358C6.34117 5.34077 7.03162 5.05922 7.75065 5.05922C8.46969 5.05922 9.16014 5.34077 9.67414 5.84358C10.1881 6.34639 10.4848 7.03047 10.5007 7.74933V7.74933Z" fill="#55FF99"/>
</svg>
