<svg width="216" height="187" viewBox="0 0 216 187" fill="none" xmlns="http://www.w3.org/2000/svg">
<path fill-rule="evenodd" clip-rule="evenodd" d="M62.9267 11.1415C68.0847 12.9505 71.1912 17.654 69.8654 21.6471C63.8653 39.7176 57.2439 57.6218 50.6635 75.4148C48.9682 79.999 47.2756 84.5757 45.597 89.1461C49.1498 87.2148 53.5742 84.8618 58.3223 83.0824C64.1689 80.8913 71.6738 79.0912 80.1824 80.4C84.9585 81.1347 89.522 82.8263 93.314 85.7701C97.0542 88.6735 99.1914 92.1334 100.377 95.3675C102.61 101.457 102.014 108.279 100.988 113.994C100.125 118.805 98.7452 123.805 97.5476 128.144C97.2719 129.143 97.0058 130.107 96.758 131.026C96.0716 133.569 95.5236 135.757 95.1893 137.596C94.8332 139.556 94.8312 140.567 94.8794 140.91C95.4945 145.287 91.7048 148.628 86.4147 148.374C81.1247 148.12 76.3376 144.366 75.7225 139.99C75.3746 137.515 75.6915 134.9 76.0992 132.657C76.5287 130.293 77.1893 127.7 77.8863 125.116C78.1713 124.06 78.4634 123 78.7559 121.939C79.9433 117.63 81.1369 113.299 81.8936 109.081C82.8729 103.622 82.8205 99.734 81.9748 97.4273C81.7295 96.7582 81.5063 96.4764 81.4329 96.3977C81.2975 96.3259 80.8666 96.1427 79.9085 95.9953C76.8692 95.5278 73.1914 96.0553 68.6931 97.7411C64.7698 99.2114 61.1104 101.199 57.3498 103.241C56.7987 103.54 56.2454 103.841 55.6888 104.141C49.0143 107.741 43.1853 111.669 38.2519 116.398C38.0904 116.553 37.772 116.892 37.2144 117.499L37.0844 117.64C36.6256 118.14 36.0589 118.757 35.5334 119.294C35.5189 119.309 35.5029 119.325 35.4856 119.343C35.1062 119.732 34.079 120.786 32.8682 121.497C32.5578 121.679 31.5155 122.286 29.9236 122.594C28.3152 122.905 23.3529 123.261 19.281 119.363C16.492 116.694 16.4407 113.95 16.4321 113.491C16.4319 113.479 16.4317 113.47 16.4315 113.461C16.4114 112.606 16.5587 111.93 16.6395 111.6C18.0046 106.013 20.1695 100.457 22.1574 95.3551C22.9259 93.3828 23.668 91.4784 24.3271 89.6664C26.9291 82.5133 29.5598 75.4002 32.1842 68.3038C38.7378 50.5834 45.2526 32.9677 51.1866 15.0962C52.5125 11.1031 57.7687 9.33251 62.9267 11.1415ZM81.4826 96.4286C81.4816 96.4293 81.4671 96.4214 81.4424 96.4029C81.4712 96.4187 81.4836 96.4279 81.4826 96.4286ZM81.4242 96.3886C81.4125 96.3791 81.4072 96.3737 81.4075 96.3734C81.4077 96.3731 81.4135 96.3778 81.4242 96.3886Z" fill="#343232"/>
<path fill-rule="evenodd" clip-rule="evenodd" d="M130.153 96.2564C134.956 97.9144 137.758 102.545 136.414 106.598C131.228 122.229 126.686 137.927 122.401 153.86C121.29 157.99 116.449 160.154 111.587 158.694C106.725 157.234 103.684 152.703 104.795 148.574C109.121 132.489 113.734 116.536 119.023 100.594C120.368 96.5402 125.351 94.5983 130.153 96.2564Z" fill="#343232"/>
<path fill-rule="evenodd" clip-rule="evenodd" d="M144.128 85.9502C144.071 86.0962 144.003 86.2732 143.922 86.4855C143.886 86.583 143.848 86.6823 143.811 86.7821C143.57 87.42 143.322 88.0802 143.14 88.4536C143.098 88.5415 143.009 88.72 142.88 88.929C142.879 88.9301 142.878 88.9323 142.876 88.9354C142.828 89.0153 142.41 89.7214 141.571 90.357L141.563 90.3624C141.249 90.6005 139.681 91.7892 136.863 91.7361C134.672 91.6947 132.868 90.9862 131.503 90.1178C129.602 89.3531 128.023 88.0844 127.047 86.6183C126.038 85.1025 125.956 83.8169 125.94 83.4117C125.917 82.8659 125.987 82.4485 126.029 82.2408C126.113 81.815 126.237 81.5003 126.281 81.3903C126.341 81.2424 126.397 81.1261 126.43 81.0582C126.497 80.9225 126.557 80.8173 126.585 80.7685C126.973 80.0996 127.408 79.5441 127.804 79.097C128.13 78.2093 128.721 77.4313 129.524 76.825C129.569 76.7642 129.596 76.7286 129.598 76.7259C131.69 73.9334 136.528 73.4947 140.404 75.7461C142.792 77.1332 144.257 79.2175 144.542 81.2666C144.737 81.8042 144.799 82.1996 144.823 82.3521L144.824 82.3539C144.897 82.8177 144.893 83.1798 144.887 83.3591C144.868 83.9379 144.745 84.3886 144.732 84.4365C144.731 84.4384 144.731 84.4396 144.731 84.4402C144.694 84.5815 144.657 84.6966 144.635 84.765C144.587 84.909 144.538 85.0383 144.499 85.1386C144.419 85.3387 144.296 85.6267 144.128 85.9502Z" fill="#343232"/>
<path fill-rule="evenodd" clip-rule="evenodd" d="M200.64 61.4847C205.787 63.3261 208.851 68.0439 207.483 72.0221L180.519 150.448C179.151 154.426 173.87 156.159 168.723 154.317C163.576 152.476 160.512 147.758 161.88 143.78L188.844 65.3538C190.212 61.3756 195.493 59.6433 200.64 61.4847Z" fill="#343232"/>
<path fill-rule="evenodd" clip-rule="evenodd" d="M155.708 170.887C155.699 170.91 155.692 170.928 155.687 170.941L155.684 170.948C155.692 170.927 155.7 170.907 155.708 170.887ZM154.035 177.321C154.267 177.768 154.535 178.219 154.845 178.665C155.51 179.619 156.905 181.321 159.318 182.426C162.368 183.824 166.023 183.751 168.894 181.873C171.129 180.41 172.073 178.381 172.481 177.3C172.913 176.158 173.047 174.97 172.921 173.811C173.192 172.842 173.353 171.643 173.164 170.286C172.936 168.658 172.123 166.448 169.998 164.62C168.976 162.805 167.269 161.288 165.079 160.46C160.44 158.705 155.387 160.702 153.792 164.92C153.807 164.881 153.834 164.808 153.396 165.715C153.129 166.268 152.595 167.387 152.256 168.646C152.034 169.469 151.178 172.704 153.21 176.126C153.467 176.558 153.744 176.956 154.035 177.321Z" fill="#343232"/>
</svg>
