<svg width="75" height="75" viewBox="0 0 100 100" fill="none" xmlns="http://www.w3.org/2000/svg">
<path d="M12.5 28.125C12.5 23.981 14.1462 20.0067 17.0765 17.0765C20.0067 14.1462 23.981 12.5 28.125 12.5H71.875C76.019 12.5 79.9933 14.1462 82.9235 17.0765C85.8538 20.0067 87.5 23.981 87.5 28.125V71.875C87.5 76.019 85.8538 79.9933 82.9235 82.9235C79.9933 85.8538 76.019 87.5 71.875 87.5H28.125C23.981 87.5 20.0067 85.8538 17.0765 82.9235C14.1462 79.9933 12.5 76.019 12.5 71.875V28.125ZM46.875 37.5C46.0462 37.5 45.2513 37.8292 44.6653 38.4153C44.0792 39.0013 43.75 39.7962 43.75 40.625V65.625C43.75 66.4538 43.4208 67.2487 42.8347 67.8347C42.2487 68.4208 41.4538 68.75 40.625 68.75H34.375C33.5462 68.75 32.7513 69.0792 32.1653 69.6653C31.5792 70.2513 31.25 71.0462 31.25 71.875C31.25 72.7038 31.5792 73.4987 32.1653 74.0847C32.7513 74.6708 33.5462 75 34.375 75H40.625C43.1114 75 45.496 74.0123 47.2541 72.2541C49.0123 70.496 50 68.1114 50 65.625V40.625C50 39.7962 49.6708 39.0013 49.0847 38.4153C48.4987 37.8292 47.7038 37.5 46.875 37.5ZM53.125 46.875V50C53.125 52.4864 54.1127 54.871 55.8709 56.6291C57.629 58.3873 60.0136 59.375 62.5 59.375H65.625C66.4538 59.375 67.2487 59.7042 67.8347 60.2903C68.4208 60.8763 68.75 61.6712 68.75 62.5V65.625C68.75 66.4538 68.4208 67.2487 67.8347 67.8347C67.2487 68.4208 66.4538 68.75 65.625 68.75H56.25C55.4212 68.75 54.6263 69.0792 54.0403 69.6653C53.4542 70.2513 53.125 71.0462 53.125 71.875C53.125 72.7038 53.4542 73.4987 54.0403 74.0847C54.6263 74.6708 55.4212 75 56.25 75H65.625C68.1114 75 70.496 74.0123 72.2541 72.2541C74.0123 70.496 75 68.1114 75 65.625V62.5C75 60.0136 74.0123 57.629 72.2541 55.8709C70.496 54.1127 68.1114 53.125 65.625 53.125H62.5C61.6712 53.125 60.8763 52.7958 60.2903 52.2097C59.7042 51.6237 59.375 50.8288 59.375 50V46.875C59.375 46.0462 59.7042 45.2513 60.2903 44.6653C60.8763 44.0792 61.6712 43.75 62.5 43.75H71.875C72.7038 43.75 73.4987 43.4208 74.0847 42.8347C74.6708 42.2487 75 41.4538 75 40.625C75 39.7962 74.6708 39.0013 74.0847 38.4153C73.4987 37.8292 72.7038 37.5 71.875 37.5H62.5C60.0136 37.5 57.629 38.4877 55.8709 40.2459C54.1127 42.004 53.125 44.3886 53.125 46.875V46.875Z" fill="#272626"/>
</svg>
