<svg width="225" height="208" viewBox="0 0 245 228" fill="none" xmlns="http://www.w3.org/2000/svg">
	<path d="M244.845 218.378C242.081 180.596 232.823 144.925 218.037 116.295C203.113 87.1956 182.663 66.779 160.691 57.8614C140.379 49.6478 115.644 49.1785 97.8185 70.5338C89.2512 80.8594 83.033 95.6439 80.4075 113.01C77.9202 129.672 78.4729 147.741 81.9275 163.934C89.2512 197.962 108.735 220.49 129.324 226.122C139.826 228.939 151.295 228.704 160.83 219.786C171.193 210.165 175.615 190.687 177.826 172.148C181.972 137.181 178.102 99.6333 167.462 68.8911C156.684 37.6795 138.859 15.3855 118.408 5.52918C98.233 -4.09244 76.4002 -1.27636 57.7456 14.9161C39.7819 30.4046 25.4109 57.3921 17.5345 88.8383C15.5999 96.3479 14.2181 104.327 13.1127 112.306C12.1454 119.581 18.7781 122.866 19.7454 115.356C23.6145 84.8489 34.2546 57.1574 48.7637 38.1488C63.8256 18.4362 82.4802 9.28395 101.411 12.1C120.342 14.6814 138.72 29.2312 151.71 52.9333C164.699 76.6353 172.022 109.02 172.437 141.405C172.575 157.598 171.193 174.729 167.462 189.513C165.39 197.258 162.488 204.298 158.204 208.757C154.197 212.746 149.637 214.858 144.939 215.562C126.284 218.378 105.833 205.002 94.5021 179.422C83.7239 155.016 82.2039 118.642 93.2585 93.7665C105.142 67.0137 127.666 62.3202 145.906 65.6056C166.633 69.1257 186.808 83.9102 202.561 106.908C218.175 129.672 229.506 160.414 235.034 194.207C236.277 202.186 237.383 210.399 237.935 218.613C238.212 221.664 239.317 224.48 241.39 224.48C243.048 224.245 244.983 221.429 244.845 218.378Z" fill="#D75358" fill-opacity="0.07"/>
	<path d="M0.538373 97.2866C2.47293 102.684 4.54565 108.082 6.61839 113.01C7.72385 115.826 8.9675 118.407 10.2111 120.989C11.3166 123.57 12.5602 125.917 14.3566 127.09C18.5021 129.906 22.233 123.101 25.273 119.111C28.313 115.122 31.0767 110.898 33.8403 106.439C37.0185 101.041 32.1822 92.8278 29.004 98.2253C26.793 101.98 24.4439 105.5 22.0948 108.786C20.9894 110.428 19.7457 111.836 18.6403 113.479C18.0876 114.183 17.3966 115.122 16.8439 115.826C16.7057 116.061 16.4293 116.295 16.2912 116.53C16.4293 116.53 16.5676 116.53 16.7057 116.295C16.9821 116.295 17.1203 116.53 17.3966 116.53C17.1203 116.295 16.9821 116.061 17.1203 116.295C15.7384 112.775 13.6657 108.786 12.0075 105.031C10.2111 100.572 8.41477 96.1133 6.75658 91.4198C4.13112 85.0836 -1.81073 90.9504 0.538373 97.2866Z" fill="#D75358" fill-opacity="0.07"/>
</svg>



