<svg width="44" height="44" viewBox="0 0 44 44" fill="none" xmlns="http://www.w3.org/2000/svg">
<path d="M31.1683 36.6668H11.0016C10.0292 36.6668 9.09654 36.2805 8.4089 35.5929C7.72127 34.9053 7.33496 33.9726 7.33496 33.0002V12.8335C7.33496 11.861 7.72127 10.9284 8.4089 10.2408C9.09654 9.55314 10.0292 9.16683 11.0016 9.16683H18.335V12.8335H11.0016V33.0002H31.1683V25.6668H34.835V33.0002C34.835 33.9726 34.4487 34.9053 33.761 35.5929C33.0734 36.2805 32.1408 36.6668 31.1683 36.6668ZM21.4516 25.1297L18.8666 22.5373L30.4038 11.0002H23.835V7.3335H36.6683V20.1668H33.0016V13.5943L21.4516 25.1297Z" fill="white"/>
</svg>
