<svg width="100" height="100" viewBox="0 0 100 100" fill="none" xmlns="http://www.w3.org/2000/svg">
<g clip-path="url(#clip0_34_9)">
<path d="M46.725 0.0250326C46.5083 0.0458659 45.825 0.116699 45.2083 0.162533C31.0083 1.44587 17.7083 9.10837 9.275 20.8875C4.61792 27.353 1.5905 34.8473 0.45 42.7334C0.05 45.4834 0 46.2917 0 50.0167C0 53.7417 0.05 54.5542 0.45 57.3C3.16667 76.0792 16.5333 91.8542 34.6542 97.7C37.9 98.7459 41.3208 99.4584 45.2083 99.8917C46.725 100.058 53.275 100.058 54.7917 99.8917C61.5042 99.1459 67.1958 97.4834 72.8042 94.6209C73.6667 94.1834 73.8333 94.0625 73.7167 93.9667C70.9733 90.3488 68.258 86.7098 65.5708 83.05L57.575 72.2459L47.5583 57.4167C44.2255 52.4567 40.8615 47.5177 37.4667 42.6C37.4292 42.5875 37.3917 49.175 37.3708 57.225C37.3417 71.3084 37.3292 71.875 37.1542 72.2084C36.9835 72.5974 36.6789 72.9123 36.2958 73.0959C35.9833 73.2542 35.7125 73.2834 34.2333 73.2834H32.5417L32.0917 73C31.8132 72.8242 31.5872 72.5767 31.4375 72.2834L31.2292 71.8459L31.25 52.2459L31.2792 32.6375L31.5833 32.2542C31.7881 32.0145 32.0335 31.8128 32.3083 31.6584C32.7083 31.4625 32.8625 31.4459 34.5583 31.4459C36.55 31.4459 36.8833 31.5209 37.4 32.0875C37.5458 32.2459 42.9708 40.4209 49.4625 50.2625L69.1875 80.1459L77.1042 92.1375L77.5083 91.875C81.3183 89.3421 84.7725 86.311 87.7792 82.8625C94.0798 75.6513 98.1668 66.7757 99.55 57.3C99.95 54.55 100 53.7417 100 50.0167C100 46.2917 99.95 45.4834 99.55 42.7334C96.8333 23.9584 83.4667 8.1792 65.3458 2.33337C61.9591 1.25657 58.4718 0.526438 54.9375 0.154199C53.9958 0.0541992 47.5375 -0.0541341 46.7292 0.0291992L46.725 0.0250326ZM67.1958 30.275C67.4282 30.3921 67.6351 30.5539 67.8046 30.7513C67.9741 30.9487 68.1028 31.1777 68.1833 31.425C68.2583 31.675 68.2792 37.1125 68.2583 49.3625L68.2292 66.9375L65.1333 62.1875L62.025 57.4375V44.6625C62.025 36.4 62.0625 31.7584 62.1208 31.5334C62.1902 31.2731 62.3116 31.0296 62.4778 30.8176C62.6439 30.6056 62.8513 30.4296 63.0875 30.3C63.4917 30.0917 63.6375 30.075 65.1708 30.075C66.6167 30.075 66.8708 30.0959 67.1958 30.2709V30.275Z" fill="#272626"/>
</g>
<defs>
<clipPath id="clip0_34_9">
<rect width="100" height="100" fill="white"/>
</clipPath>
</defs>
</svg>
