<svg width="96" height="78" viewBox="0 0 106 88" fill="none" xmlns="http://www.w3.org/2000/svg">
<path d="M7.65755 24.2828C8.09272 24.2139 8.4927 24.1929 8.85749 24.2196C9.22228 24.2464 9.54828 24.3275 9.8355 24.4628C10.0667 24.6681 10.2936 24.8962 10.5161 25.1472C10.7486 25.3954 10.9453 25.67 11.1061 25.9709C11.2741 26.259 11.3999 26.5698 11.4834 26.9035C11.5769 27.2343 11.6016 27.5899 11.5576 27.9704C11.3689 28.4134 11.0967 28.8097 10.7408 29.1592C10.3922 29.4959 9.99712 29.8024 9.55564 30.0788C9.11416 30.3551 8.64696 30.6171 8.15405 30.8647C7.67117 31.1094 7.19831 31.3513 6.73547 31.5904C6.81066 31.8181 6.88008 32.0637 6.94372 32.3271C7.01455 32.5777 7.06174 32.8404 7.08529 33.1152C7.11603 33.3771 7.12029 33.6411 7.09808 33.9072C7.07586 34.1733 7.01791 34.4278 6.92422 34.6708C6.75381 34.719 6.58406 34.7886 6.41496 34.8797C6.2487 34.9808 6.09965 35.0662 5.96782 35.136C5.88631 35.1157 5.80983 35.094 5.73835 35.0709C5.67973 35.055 5.59888 35.0562 5.49581 35.0746C5.48752 34.9686 5.43413 34.8755 5.33563 34.7951C5.2343 34.7047 5.13296 34.6142 5.03163 34.5238C4.93029 34.4334 4.85042 34.3423 4.79202 34.2505C4.74364 34.156 4.76684 34.0466 4.86162 33.9224C4.77162 33.872 4.71104 33.7917 4.67987 33.6815C4.71604 33.5413 4.72943 33.359 4.72005 33.1343C4.72069 32.9068 4.70772 32.6885 4.68112 32.4796C4.66172 32.2577 4.61791 32.0644 4.54969 31.8997C4.48148 31.735 4.34582 31.638 4.14272 31.6088C4.14708 31.5859 4.1643 31.5702 4.19437 31.5617C4.22444 31.5532 4.25309 31.5397 4.28033 31.5212C4.18314 31.4837 4.10894 31.4127 4.05772 31.3081C4.01653 31.2007 3.95453 31.1153 3.87172 31.0522C3.8776 30.9964 3.87989 30.947 3.87858 30.9041C3.87727 30.8612 3.9081 30.8362 3.97108 30.8292C3.89001 30.6573 3.84184 30.4869 3.82658 30.318C3.82134 30.1463 3.83397 29.9803 3.86447 29.8202C3.89214 29.65 3.93626 29.4806 3.99683 29.3119C4.0574 29.1432 4.11296 28.976 4.16351 28.8101C4.23084 28.7803 4.27377 28.779 4.2923 28.8062C4.32085 28.8306 4.35451 28.8157 4.3933 28.7614C4.49528 28.6243 4.55574 28.4936 4.57469 28.3692C4.59365 28.2447 4.58329 28.1123 4.54362 27.972C4.55429 27.7417 4.57999 27.5071 4.62073 27.2683C4.65863 27.0194 4.71223 26.7877 4.78152 26.5733C4.8508 26.3589 4.93578 26.1617 5.03645 25.9817C5.14714 25.7988 5.27276 25.6497 5.41331 25.5342C5.50526 25.3999 5.63012 25.2672 5.78789 25.136C5.94282 24.9948 6.11987 24.8744 6.31903 24.7748C6.51537 24.6652 6.71879 24.5806 6.92929 24.5211C7.14698 24.4488 7.35313 24.4121 7.54773 24.4113C7.60351 24.4171 7.62574 24.4 7.61441 24.3599C7.6131 24.317 7.62748 24.2913 7.65755 24.2828ZM8.05684 28.0506C8.27627 27.8695 8.51782 27.7092 8.78149 27.5698C9.05235 27.4174 9.25751 27.2241 9.39696 26.9899C9.24551 26.9136 9.04317 26.868 8.78995 26.8529C8.5339 26.8279 8.26772 26.8436 7.99141 26.9C7.7151 26.9565 7.44652 27.0595 7.18569 27.209C6.93204 27.3456 6.73048 27.5325 6.581 27.7696C6.57186 27.967 6.56282 28.1265 6.55389 28.2481C6.54213 28.3597 6.52242 28.5006 6.49475 28.6708C6.52896 28.7152 6.57037 28.7468 6.61897 28.7656C6.67475 28.7714 6.71975 28.7966 6.75397 28.8411C6.95052 28.6556 7.16265 28.5253 7.39037 28.4501C7.62527 28.362 7.84743 28.2289 8.05684 28.0506ZM14.6771 30.677C14.6802 31.1092 14.6663 31.4432 14.6356 31.6792C14.6121 31.9024 14.5463 32.1483 14.4382 32.417C14.3023 32.4338 14.2163 32.4743 14.1803 32.5386C14.1444 32.6029 14.102 32.6636 14.0532 32.7207C13.9686 32.7662 13.9035 32.7846 13.8577 32.7759C13.812 32.7672 13.7698 32.7521 13.7312 32.7305C13.6955 32.7189 13.6483 32.7052 13.5897 32.6893C13.5439 32.6806 13.4759 32.689 13.3857 32.7145C13.343 32.64 13.2967 32.5719 13.2468 32.5102C13.2069 32.4457 13.1347 32.4391 13.0301 32.4903C13.0275 32.4044 13.014 32.3378 12.9899 32.2906C12.9628 32.2332 12.9336 32.1874 12.9022 32.153C12.8781 32.1057 12.8553 32.0634 12.8339 32.0261C12.8097 31.9788 12.7977 31.9173 12.798 31.8414C12.7478 31.8556 12.6978 31.8319 12.6479 31.7702C12.598 31.7085 12.5431 31.6483 12.4832 31.5894C12.4622 31.4005 12.4441 31.2216 12.4289 31.0527C12.4136 30.8838 12.4062 30.7236 12.4066 30.5719C12.4171 30.4174 12.4175 30.2657 12.4079 30.1169C12.3983 29.9681 12.3422 29.827 12.2396 29.6936C12.2882 29.7123 12.3168 29.6988 12.3255 29.6531C12.3314 29.5973 12.3294 29.5329 12.3196 29.4599C12.307 29.3769 12.2908 29.3003 12.2709 29.2301C12.2483 29.1499 12.2248 29.0862 12.2006 29.0389C12.2272 28.7499 12.2323 28.4616 12.216 28.174C12.2068 27.8735 12.189 27.5808 12.1626 27.296C12.1463 27.0084 12.1313 26.7257 12.1178 26.4481C12.1043 26.1705 12.1165 25.9072 12.1544 25.6584C12.259 25.6072 12.3835 25.5882 12.528 25.6015C12.6797 25.6019 12.7805 25.633 12.8304 25.6946C13.0343 25.4205 13.1969 25.1147 13.318 24.7774C13.4363 24.43 13.5625 24.0913 13.6965 23.7611C13.8305 23.431 13.993 23.1253 14.1841 22.8439C14.3852 22.5597 14.6756 22.3424 15.0552 22.1918C15.2982 22.2855 15.5626 22.3785 15.8485 22.4709C16.1416 22.5504 16.4038 22.6928 16.635 22.8981C16.7265 22.9155 16.8044 22.9422 16.8687 22.9781C16.9402 23.0012 17.0231 23.0265 17.1175 23.054L17.1685 23.2344C17.3199 23.3107 17.452 23.414 17.5647 23.5446C17.6845 23.6622 17.7986 23.7978 17.9069 23.9512C18.0124 24.0946 18.1193 24.243 18.2276 24.3964C18.3331 24.5397 18.4472 24.6753 18.5698 24.803C18.564 24.8588 18.5667 24.9067 18.578 24.9468C18.5865 24.9769 18.6015 25.0105 18.6228 25.0478C18.6542 25.0822 18.6806 25.1181 18.7019 25.1553C18.7233 25.1926 18.7389 25.2477 18.7487 25.3207C18.8433 25.7703 18.7985 26.1672 18.6144 26.5115C18.4403 26.853 18.1983 27.165 17.8884 27.4474C17.5758 27.7198 17.2309 27.9742 16.8539 28.2107C16.477 28.4471 16.1429 28.6823 15.8518 28.9161C15.8631 28.9562 15.8838 28.972 15.9139 28.9635C15.954 28.9522 15.9761 28.973 15.9802 29.026C16.2633 29.1083 16.4878 29.1748 16.6536 29.2253C16.8194 29.2759 16.971 29.3142 17.1083 29.3403C17.2556 29.3637 17.4065 29.3805 17.561 29.391C17.7227 29.3886 17.9424 29.3806 18.22 29.3671C18.4976 29.3536 18.7123 29.347 18.8639 29.3475C19.0228 29.335 19.1666 29.3268 19.2954 29.3229C19.4213 29.309 19.5473 29.295 19.6733 29.2811C19.8064 29.2543 19.9911 29.2183 20.2273 29.1732C20.343 29.2379 20.4494 29.3269 20.5463 29.4402C20.6505 29.5407 20.731 29.6532 20.7879 29.7779C20.842 29.8925 20.881 30.0113 20.9049 30.1345C20.9261 30.2476 20.9165 30.3477 20.8762 30.4349C20.8947 30.4621 20.919 30.4715 20.9491 30.463C20.9864 30.4416 21.0264 30.4303 21.0694 30.429C21.0206 30.4861 20.9846 30.5504 20.9615 30.6218C20.9384 30.6933 20.9153 30.7648 20.8922 30.8363C20.8691 30.9077 20.8382 30.9706 20.7994 31.0249C20.7635 31.0892 20.7018 31.1391 20.6144 31.1746C20.3377 31.3827 19.9481 31.4982 19.4459 31.5211C18.9464 31.5541 18.2961 31.5322 17.4951 31.4555C17.0946 31.4172 16.7649 31.3805 16.506 31.3454C16.2543 31.2975 16.0291 31.2475 15.8303 31.1954C15.6388 31.1305 15.4558 31.0577 15.2815 30.9771C15.1172 30.8936 14.9157 30.7936 14.6771 30.677ZM15.3695 24.912C15.3045 25.1035 15.2203 25.2843 15.1168 25.4543C15.0233 25.6214 14.9313 25.7936 14.8406 25.9707C14.7572 26.1351 14.6894 26.3166 14.6373 26.5153C14.5824 26.704 14.5661 26.9143 14.5883 27.1462C14.9278 27.0069 15.2668 26.8083 15.6052 26.5502C15.9408 26.2822 16.2591 26.0298 16.5603 25.7932C16.4324 25.4938 16.2513 25.2743 16.017 25.1349C15.7928 24.9926 15.5769 24.9183 15.3695 24.912ZM28.5191 23.582C28.5431 23.7051 28.5857 23.8175 28.6469 23.9193C28.7082 24.0211 28.7744 24.1214 28.8457 24.2203C28.9241 24.3064 28.999 24.3989 29.0703 24.4978C29.1415 24.5968 29.2028 24.6985 29.254 24.8031C29.3137 24.9378 29.3576 25.0932 29.3857 25.2692C29.411 25.4353 29.4213 25.6056 29.4165 25.7801C29.4089 25.9447 29.3834 26.1034 29.34 26.2564C29.2938 26.3993 29.2241 26.5165 29.1308 26.6078C29.0415 26.8279 28.9107 27.0164 28.7386 27.1733C28.5665 27.3302 28.415 27.5029 28.2843 27.6914C28.1938 27.7927 28.0827 27.8783 27.9509 27.948C27.8291 28.0149 27.7022 28.0832 27.5704 28.153C27.4772 28.2443 27.3653 28.3463 27.2347 28.4589C27.1014 28.5616 26.963 28.6657 26.8196 28.7711C26.6734 28.8666 26.5244 28.952 26.3725 29.0274C26.2178 29.0928 26.0788 29.1375 25.9557 29.1615C25.6862 29.3567 25.4103 29.5105 25.1281 29.6227C24.8588 29.7421 24.5223 29.8156 24.1187 29.8431C23.772 29.9952 23.432 30.0751 23.0986 30.0827C22.7752 30.0875 22.4691 30.0387 22.1804 29.9363C21.8988 29.8211 21.6338 29.6686 21.3854 29.4791C21.1442 29.2766 20.9302 29.0557 20.7434 28.8162C20.5017 28.2675 20.3758 27.7456 20.3658 27.2505C20.3529 26.7454 20.4015 26.2662 20.5115 25.8129C20.6287 25.3468 20.7859 24.9073 20.9831 24.4943C21.1775 24.0713 21.3647 23.6612 21.5446 23.2639C21.6104 23.267 21.6555 23.2542 21.68 23.2257C21.7116 23.1843 21.7367 23.1393 21.7555 23.0907C21.7714 23.0321 21.7887 22.9784 21.8074 22.9298C21.8362 22.8784 21.8742 22.8406 21.9215 22.8164C21.9492 22.6462 22.0182 22.5076 22.1287 22.4006C22.2464 22.2808 22.3255 22.1393 22.366 21.9763C22.4505 21.9308 22.5172 21.8795 22.566 21.8224C22.6148 21.7653 22.6572 21.7046 22.6932 21.6403C22.7392 21.5732 22.7866 21.5111 22.8354 21.454C22.8813 21.3869 22.9416 21.3319 23.0161 21.2892L22.9694 21.1238C23.1271 20.9926 23.2319 20.8656 23.2838 20.7427C23.3428 20.6069 23.4113 20.4469 23.489 20.2625C23.5764 20.227 23.6452 20.2021 23.6953 20.188C23.7554 20.171 23.8378 20.1369 23.9424 20.0856C23.9829 19.9226 24.0234 19.7976 24.0637 19.7104C24.114 19.6204 24.193 19.5169 24.3006 19.3998C24.4379 19.426 24.5796 19.4293 24.7256 19.4096C24.8816 19.3872 25.0303 19.4155 25.1717 19.4946C25.2101 19.592 25.2628 19.6637 25.33 19.7097C25.3942 19.7456 25.4635 19.7802 25.5379 19.8133C25.6093 19.8364 25.6772 19.8659 25.7415 19.9019C25.8158 19.935 25.8757 19.9938 25.9213 20.0784C25.9642 20.077 25.9879 20.0649 25.9922 20.0421C26.0066 20.0164 26.0353 20.0028 26.0782 20.0015C26.1479 20.1334 26.2099 20.2187 26.2642 20.2575C26.3156 20.2862 26.3798 20.3601 26.4567 20.4791C26.4349 20.5935 26.4246 20.7101 26.4257 20.8288C26.434 20.9347 26.3951 21.0269 26.309 21.1054C26.3188 21.1784 26.3502 21.2128 26.4032 21.2087C26.4533 21.1945 26.4904 21.211 26.5146 21.2583C26.5501 21.3457 26.5535 21.4151 26.5248 21.4665C26.8758 21.7895 27.2089 22.1446 27.5241 22.5318C27.8363 22.909 28.168 23.259 28.5191 23.582ZM27.0434 25.5416C27.0523 25.42 27.0769 25.3156 27.1172 25.2285C27.1676 25.1385 27.1779 25.0219 27.1483 24.8787C27.0755 24.8127 27.0284 24.7611 27.007 24.7238C26.9829 24.6765 26.9566 24.6027 26.9283 24.5025C26.6199 24.2541 26.3359 23.9771 26.0764 23.6716C25.814 23.3561 25.5387 23.0713 25.2504 22.8172C25.2416 22.863 25.2179 22.913 25.1791 22.9673C25.1403 23.0215 25.0823 23.0271 25.0052 22.984C25.0078 23.0698 24.9897 23.1399 24.951 23.1941C24.9093 23.2384 24.8585 23.269 24.7983 23.286C24.7353 23.293 24.6659 23.2964 24.5901 23.2961C24.5215 23.2831 24.4564 23.2636 24.3949 23.2376C24.1694 23.5504 23.9425 23.8581 23.7141 24.1608C23.4858 24.4634 23.2974 24.7927 23.149 25.1486C23.1146 25.18 23.0924 25.1971 23.0823 25.1999C23.0695 25.1927 23.0408 25.2062 22.9964 25.2404C22.97 25.4536 22.9193 25.6573 22.8444 25.8517C22.7766 26.0332 22.7103 26.2198 22.6454 26.4113C22.5804 26.6029 22.5334 26.8002 22.5042 27.0033C22.475 27.2064 22.4894 27.4296 22.5474 27.673C22.7574 27.7652 22.982 27.7937 23.221 27.7587C23.4601 27.7236 23.6971 27.662 23.932 27.5739C24.1769 27.4831 24.409 27.385 24.6282 27.2797C24.8546 27.1616 25.0681 27.0742 25.2685 27.0175C25.6612 26.7983 25.9852 26.566 26.2406 26.3206C26.4932 26.0652 26.7607 25.8055 27.0434 25.5416ZM36.0167 18.7998C36.0703 19.0661 36.1054 19.3051 36.1219 19.517C36.1385 19.7288 36.1429 19.9549 36.135 20.1952C36.1941 21.0553 36.2118 21.8838 36.1881 22.6807C36.1744 23.4748 36.1044 24.2036 35.978 24.8672C35.7996 25.2316 35.6162 25.5594 35.428 25.8508C35.2497 26.1393 35.023 26.3712 34.7478 26.5464C34.6031 26.6089 34.4748 26.6722 34.3631 26.7363C34.2585 26.7875 34.1553 26.8438 34.0535 26.905C34.0062 26.9292 33.9539 26.9548 33.8966 26.9818C33.8493 27.006 33.8035 27.0352 33.759 27.0694C33.6002 27.0819 33.4477 27.0979 33.3017 27.1175C33.1686 27.1443 33.0469 27.1733 32.9366 27.2045L32.7241 27.1996C32.6154 27.1978 32.5281 27.1954 32.4623 27.1924C32.4065 27.1865 32.3522 27.1856 32.2992 27.1898C32.2535 27.1811 32.1991 27.1802 32.1361 27.1872C32.0832 27.1913 31.9951 27.2054 31.872 27.2294C31.7386 27.332 31.6068 27.4017 31.4765 27.4386C31.2961 27.4896 31.0793 27.4697 30.8263 27.3788C30.5733 27.2879 30.3073 27.0168 30.0281 26.5652C29.9943 26.3691 29.9776 26.1952 29.978 26.0436C29.9656 25.8847 29.9681 25.7595 29.9855 25.668C30.1865 25.4597 30.3671 25.3328 30.5275 25.2875C30.7179 25.2336 30.9069 25.2127 31.0943 25.2247C31.2917 25.2338 31.4855 25.2494 31.6758 25.2714C31.7645 25.2788 31.8267 25.2883 31.8624 25.2998C31.8982 25.3114 31.9275 25.3193 31.9504 25.3237C31.9732 25.3281 31.9947 25.3274 32.0147 25.3217C32.0448 25.3132 32.1 25.2976 32.1801 25.275C32.2303 25.2608 32.2704 25.2495 32.3004 25.241C32.3377 25.2196 32.375 25.1983 32.4122 25.1769L32.5668 25.1494C32.6355 25.1625 32.7099 25.1577 32.7901 25.1351C32.8903 25.1067 33.0085 25.0462 33.1447 24.9536C33.2064 24.9037 33.2559 24.8681 33.2931 24.8467C33.3404 24.8225 33.3877 24.7983 33.435 24.7742L33.5213 24.6199C33.603 24.5643 33.6582 24.5108 33.687 24.4594C33.7258 24.4051 33.7531 24.3487 33.769 24.29C33.7949 24.2286 33.8144 24.1635 33.8275 24.0949C33.8406 24.0263 33.8623 23.9498 33.8926 23.8654C33.9185 23.804 33.9394 23.7439 33.9553 23.6853C33.9812 23.6239 34.0072 23.5624 34.0331 23.501L33.9906 23.3506C34.0387 23.0231 34.069 22.6898 34.0814 22.3507C34.091 22.0016 34.0905 21.6553 34.0801 21.3119C34.0696 20.9685 34.0469 20.6393 34.012 20.3244C33.9872 20.0067 33.9608 19.7219 33.9329 19.47L33.7825 19.5125C33.5319 19.5833 33.3278 19.6464 33.1703 19.7018C33.0099 19.7471 32.8674 19.7982 32.7428 19.8551C32.6153 19.902 32.4806 19.9617 32.3388 20.0342C32.2069 20.104 32.0364 20.1901 31.8272 20.2925L31.6144 20.4014C31.4867 20.524 31.3562 20.6367 31.2228 20.7394C31.0895 20.842 30.9476 20.9146 30.7973 20.9571C30.5366 21.0307 30.2878 20.9928 30.0507 20.8434C29.8234 20.7669 29.665 20.6276 29.5754 20.4256C29.5083 20.3797 29.4734 20.3137 29.4708 20.2279C29.3967 20.1189 29.3469 20.0194 29.3214 19.9291C29.2931 19.8289 29.2676 19.7387 29.2449 19.6585L29.1854 19.448L29.3809 19.3927C29.4168 19.3285 29.442 19.2835 29.4564 19.2577C29.4679 19.222 29.473 19.1827 29.4717 19.1397L29.5989 18.9577C29.7636 18.8894 29.9319 18.8148 30.1039 18.7337C30.283 18.6398 30.4671 18.5445 30.6563 18.4477C30.8354 18.3538 30.9873 18.2784 31.1119 18.2215C31.2466 18.1618 31.3726 18.1099 31.4901 18.0659C31.6176 18.019 31.7465 17.9772 31.8768 17.9403C32.0143 17.8906 32.1733 17.8403 32.3537 17.7893L32.6995 17.6915C32.7182 17.6429 32.7426 17.6144 32.7727 17.6059C32.81 17.5845 32.8386 17.571 32.8587 17.5654C32.9088 17.5512 32.9503 17.5449 32.9832 17.5464C33.0161 17.5479 33.044 17.5509 33.0669 17.5552C33.3334 17.4258 33.5855 17.322 33.8233 17.244C34.0582 17.156 34.2709 17.085 34.4613 17.0312C34.5616 17.0028 34.6518 16.9773 34.732 16.9547C34.8222 16.9292 34.9088 16.9101 34.9918 16.8975L35.488 16.7572L35.8188 16.6637C35.8661 16.6395 35.9449 16.6118 36.0551 16.5807C36.2155 16.5353 36.3172 16.512 36.3601 16.5107C36.4102 16.4965 36.4982 16.4825 36.6242 16.4685C36.7702 16.4489 36.9012 16.4335 37.0171 16.4224C37.1402 16.3984 37.2619 16.3695 37.3822 16.3355L37.6077 16.2717L37.6953 16.4093L37.8581 16.5257C37.8923 16.5701 37.9352 16.6067 37.9866 16.6355C38.0481 16.6614 38.1109 16.6924 38.1752 16.7283C38.3038 16.8002 38.4316 16.8886 38.5586 16.9934C38.6957 17.0954 38.7861 17.2809 38.8296 17.55L38.7711 17.7452C38.7267 17.7794 38.6793 17.8415 38.629 17.9315L38.5276 18.09C38.4202 18.1312 38.3278 18.1682 38.2505 18.2009C38.1703 18.2235 38.0901 18.2462 38.0099 18.2689C37.8595 18.3114 37.7027 18.3503 37.5395 18.3856C37.3863 18.4181 37.2231 18.4534 37.0499 18.4915C36.9597 18.517 36.8895 18.5368 36.8394 18.551C36.7893 18.5652 36.7391 18.5793 36.689 18.5935C36.6489 18.6048 36.6038 18.6176 36.5537 18.6318C36.5036 18.6459 36.4384 18.6644 36.3582 18.687C36.278 18.7097 36.2179 18.7267 36.1778 18.738C36.1377 18.7494 36.084 18.7699 36.0167 18.7998ZM44.9332 14.672C44.963 14.7393 44.9786 14.7944 44.9799 14.8374C44.9884 14.8674 44.9919 14.8989 44.9904 14.9318C44.9989 14.9619 45.0088 14.997 45.0201 15.0371C45.0286 15.0672 45.0528 15.1144 45.0927 15.1789C44.9785 15.5793 44.7995 15.8842 44.5557 16.0939C44.3191 16.2907 44.0489 16.4645 43.7451 16.6153C43.4385 16.7561 43.1233 16.9047 42.7995 17.0612C42.4857 17.2148 42.1917 17.4386 41.9176 17.7326C41.7731 17.7193 41.6528 17.7533 41.5567 17.8346C41.4707 17.9131 41.3246 17.9706 41.1184 18.0072C41.0753 18.0844 41.0128 18.1507 40.9311 18.2063C40.8466 18.2518 40.7635 18.3024 40.6817 18.358C40.7473 18.4369 40.7893 18.5278 40.8076 18.6309C40.8331 18.7211 40.8694 18.7921 40.9165 18.8437C41.2758 18.7746 41.6603 18.6605 42.07 18.5014C42.4897 18.3395 42.9036 18.1954 43.3117 18.0692C43.3359 18.1165 43.3408 18.153 43.3264 18.1787C43.3092 18.1944 43.3113 18.2209 43.3327 18.2582C43.417 18.2884 43.5056 18.3338 43.5984 18.3941C43.6884 18.4445 43.7784 18.4948 43.8684 18.5451C43.9584 18.5955 44.0456 18.6358 44.1299 18.6661C44.2214 18.6835 44.3159 18.673 44.4133 18.6347C44.4761 18.7035 44.5266 18.7866 44.565 18.8841C44.6105 18.9686 44.6274 19.0667 44.6157 19.1782C44.4865 19.3338 44.3587 19.4944 44.2323 19.6601C44.1031 19.8157 43.961 19.9641 43.8061 20.1053C43.6612 20.2437 43.497 20.3713 43.3135 20.4881C43.1372 20.592 42.9273 20.673 42.6839 20.731C42.6338 20.7451 42.5937 20.7565 42.5637 20.765C42.5436 20.7706 42.5093 20.7641 42.4607 20.7454C42.3947 20.8181 42.2836 20.8658 42.1276 20.8882C41.9816 20.9078 41.8756 20.954 41.8096 21.0268C41.6851 21.0079 41.5442 21.0261 41.3866 21.0814C41.2362 21.1239 41.0953 21.1421 40.9636 21.136C40.8628 21.3919 40.7812 21.6585 40.7188 21.9359C40.6565 22.2133 40.6135 22.5015 40.5898 22.8005C40.9448 22.7543 41.2311 22.695 41.4488 22.6226C41.6765 22.5474 41.8878 22.4715 42.0826 22.3948C42.2746 22.308 42.473 22.2249 42.6778 22.1453C42.8798 22.0558 43.1426 21.9707 43.4662 21.89C43.6355 21.7231 43.8512 21.5863 44.1134 21.4798C44.3827 21.3603 44.6213 21.2279 44.8292 21.0826C44.9179 21.09 45.0037 21.1253 45.0865 21.1885C45.1664 21.2416 45.2414 21.2962 45.3114 21.3522C45.3885 21.3954 45.4642 21.4335 45.5385 21.4666C45.6129 21.4997 45.6937 21.4985 45.7811 21.463C45.8325 21.4918 45.8717 21.5348 45.8988 21.5921C45.933 21.6366 45.9622 21.6824 45.9864 21.7297C46.0106 21.777 46.0383 21.8179 46.0697 21.8523C46.1083 21.8739 46.1562 21.8711 46.2135 21.8441C46.1567 22.2174 46.0535 22.5226 45.904 22.7597C45.7618 22.9839 45.5781 23.1766 45.353 23.3376C45.1279 23.4987 44.867 23.6482 44.5705 23.7861C44.2839 23.9213 43.9651 24.0763 43.6141 24.2513C43.5295 24.2969 43.4529 24.3131 43.3843 24.3C43.3185 24.297 43.2455 24.3068 43.1653 24.3295C42.9489 24.4448 42.686 24.5678 42.3765 24.6985C42.0671 24.8293 41.7456 24.9364 41.412 25.0199C41.0783 25.1034 40.7498 25.1475 40.4264 25.1523C40.1059 25.1672 39.8235 25.1063 39.5792 24.9697C39.4792 24.9222 39.4014 24.8576 39.3458 24.7758C39.2974 24.6813 39.211 24.6245 39.0866 24.6055C39.0397 24.4781 38.9786 24.3384 38.9032 24.1865C38.8278 24.0346 38.751 23.8777 38.6727 23.7158C38.5916 23.5439 38.517 23.3756 38.4488 23.2108C38.3906 23.0432 38.3567 22.885 38.3471 22.7362C38.3347 22.5773 38.3566 22.425 38.4128 22.2792C38.479 22.1306 38.4773 21.9904 38.4075 21.8586C38.4548 21.8344 38.4778 21.8008 38.4765 21.7579C38.4724 21.7049 38.5068 21.6735 38.5798 21.6637C38.5889 21.4663 38.6059 21.2775 38.6308 21.0973C38.6556 20.917 38.6818 20.7418 38.7095 20.5716C38.7472 20.3986 38.7799 20.227 38.8075 20.0568C38.8424 19.8738 38.868 19.6771 38.8843 19.4668C38.7072 19.3762 38.5622 19.2656 38.4496 19.1351C38.3441 18.9917 38.2551 18.8491 38.1825 18.7072C38.1071 18.5553 38.0367 18.402 37.9713 18.2473C37.9031 18.0826 37.8198 17.9221 37.7216 17.7658C37.7793 17.5871 37.8656 17.4328 37.9804 17.303C38.1024 17.1602 38.2402 17.0347 38.3936 16.9264C38.547 16.8181 38.7183 16.7155 38.9074 16.6188C39.0965 16.522 39.2943 16.4174 39.5007 16.305C39.8648 16.0613 40.1923 15.8605 40.4832 15.7025C40.7841 15.5416 41.0793 15.3987 41.3687 15.2736C41.6652 15.1356 41.9733 14.9999 42.2927 14.8663C42.6122 14.7327 42.9711 14.5663 43.3694 14.3671C43.4851 14.4318 43.5831 14.4528 43.6633 14.4301C43.6779 14.3286 43.7159 14.2908 43.7773 14.3167C43.846 14.3298 43.8625 14.2926 43.827 14.2053C43.9754 14.3473 44.1418 14.4573 44.3262 14.535C44.5177 14.6 44.7201 14.6456 44.9332 14.672ZM53.0782 21.5437C52.9206 21.5991 52.7187 21.6507 52.4725 21.6987C52.2363 21.7438 52.0307 21.8398 51.8557 21.9867C51.3187 22.1168 50.759 22.2047 50.1766 22.2502C49.5941 22.2958 49.0496 22.3036 48.5432 22.2735C48.4118 22.1916 48.2832 22.1197 48.1575 22.0578C48.0289 21.9859 47.8737 21.954 47.692 21.9621C47.3976 21.8396 47.137 21.6643 46.9101 21.4362C46.6804 21.198 46.4765 20.9363 46.2985 20.651C46.1204 20.3658 45.971 20.067 45.8503 19.7548C45.7267 19.4325 45.6274 19.1196 45.5525 18.816C45.5753 18.3224 45.6767 17.877 45.8567 17.4798C46.0439 17.0696 46.2375 16.6631 46.4375 16.2602C46.5508 16.1632 46.6291 16.0761 46.6722 15.999C46.7225 15.909 46.7757 15.829 46.8317 15.7591C46.8949 15.6762 46.9545 15.5999 47.0105 15.5299C47.0737 15.4471 47.124 15.3571 47.1615 15.2599C47.3578 15.1503 47.5184 15.0291 47.6433 14.8964C47.7753 14.7508 47.9024 14.6067 48.0244 14.4639C48.1436 14.3112 48.2706 14.167 48.4055 14.0315C48.5404 13.8959 48.706 13.7733 48.9023 13.6637C48.957 13.5508 49.0324 13.4537 49.1285 13.3725C49.2218 13.2811 49.3165 13.1948 49.4125 13.1136C49.5158 13.0194 49.6091 12.9281 49.6923 12.8396C49.7856 12.7483 49.8481 12.644 49.8799 12.5268C49.9527 12.5928 50.0314 12.6031 50.116 12.5575C50.1977 12.5019 50.2744 12.4478 50.3461 12.3951C50.3933 12.3709 50.4363 12.3696 50.4748 12.3911C50.5234 12.4099 50.567 12.43 50.6056 12.4516C50.6442 12.4732 50.6749 12.4861 50.6978 12.4905C50.7278 12.482 50.7458 12.4498 50.7517 12.3941C50.8018 12.3799 50.8239 12.4007 50.8181 12.4565C50.8122 12.5123 50.8071 12.5516 50.8027 12.5745C50.8801 12.5418 50.9509 12.5434 51.0152 12.5794C51.0867 12.6025 51.184 12.602 51.3071 12.5781C51.3613 12.6168 51.3827 12.6541 51.3711 12.6898C51.3568 12.7156 51.3581 12.7585 51.3751 12.8186C51.7013 12.8238 51.9328 12.9154 52.0697 13.0932C52.2037 13.261 52.2654 13.46 52.2547 13.6904C52.2441 13.9207 52.174 14.1516 52.0446 14.383C51.9151 14.6144 51.7537 14.79 51.5602 14.9096C51.1159 15.1759 50.7009 15.4502 50.3152 15.7324C49.9367 16.0018 49.6546 16.3251 49.4689 16.7023C49.2482 16.8404 49.0596 16.9966 48.9032 17.1707C48.7539 17.332 48.6153 17.5119 48.4874 17.7104C48.3667 17.8961 48.2538 18.0903 48.1488 18.2932C48.051 18.4833 47.9431 18.6761 47.8252 18.8718C47.8749 19.0093 47.881 19.1267 47.8435 19.2238C47.8132 19.3082 47.7844 19.3975 47.7569 19.4919C47.8195 19.6366 47.8928 19.762 47.9769 19.8681C48.0582 19.9642 48.1445 20.0589 48.2358 20.1521C48.9541 20.1656 49.6912 20.0926 50.4471 19.933C51.2131 19.7706 51.9734 19.5882 52.728 19.3857C52.8265 19.4661 52.9336 19.5387 53.0493 19.6034C53.1722 19.6553 53.2879 19.72 53.3965 19.7976C53.5021 19.8651 53.597 19.9519 53.6812 20.0581C53.7625 20.1542 53.8121 20.2917 53.8302 20.4706C53.7324 20.6606 53.6167 20.8449 53.4831 21.0233C53.3467 21.1918 53.2117 21.3653 53.0782 21.5437ZM61.2348 11.3956C60.9842 11.4665 60.7192 11.563 60.4398 11.6853C60.1576 11.7975 59.8819 11.9133 59.6125 12.0328C59.4205 12.1195 59.2322 12.1998 59.0474 12.2737C58.8726 12.3447 58.7115 12.4065 58.5639 12.4591C58.5561 12.6994 58.5412 12.9147 58.5192 13.105C58.4972 13.2952 58.4688 13.4818 58.4339 13.6649C58.4019 13.858 58.3763 14.0546 58.3571 14.2549C58.3451 14.4423 58.3374 14.6447 58.3339 14.8622C58.279 15.0509 58.2363 15.2254 58.2058 15.3856C58.1825 15.5329 58.1749 15.6974 58.183 15.8791C58.1052 16.0635 58.0603 16.2494 58.0483 16.4368C58.0335 16.6142 58.0281 16.7672 58.032 16.896L58.0229 17.0935C57.9797 17.1706 57.9588 17.2306 57.9601 17.2736C57.9586 17.3065 57.942 17.3436 57.9104 17.385C57.9316 17.4981 57.9277 17.6183 57.8987 17.7456C57.8928 17.8014 57.8919 17.8557 57.8961 17.9087C57.8974 17.9516 57.9009 17.9831 57.9065 18.0032C57.9349 18.1034 57.9282 18.1756 57.8866 18.2199C57.9108 18.2672 57.9264 18.3223 57.9334 18.3853C57.9375 18.4382 57.9416 18.4912 57.9458 18.5441C57.9497 18.6729 57.9666 18.771 57.9965 18.8383C58.0379 18.8699 58.0728 18.8979 58.1014 18.9223C58.14 18.9439 58.1713 18.9783 58.1955 19.0256C58.267 19.0487 58.3192 19.061 58.3521 19.0625C58.4007 19.0813 58.4708 19.0993 58.5623 19.1168L58.7401 19.2289C58.8724 19.5054 58.8925 19.7487 58.8003 19.9588C58.7038 20.1917 58.4751 20.3592 58.1142 20.4612L57.9338 20.5122C57.8695 20.4763 57.8281 20.4447 57.8096 20.4174C57.7209 20.41 57.6486 20.4034 57.5929 20.3975C57.5371 20.3916 57.4806 20.3643 57.4235 20.3155C57.2762 20.2922 57.1568 20.2718 57.0653 20.2544L56.9087 20.2174C56.8775 20.1072 56.8605 20.047 56.8577 20.037C56.762 19.9666 56.6786 19.882 56.6073 19.783C56.5461 19.6813 56.4898 19.5781 56.4386 19.4735C56.3931 19.3889 56.3439 19.3108 56.2912 19.2391C56.2485 19.1646 56.1986 19.1029 56.1415 19.0541C55.9571 18.4784 55.8734 17.9717 55.8904 17.5339C55.9073 17.0961 55.9336 16.6719 55.9691 16.2613C55.9926 16.0382 56.0161 15.8151 56.0397 15.5919C56.0603 15.3587 56.0696 15.1234 56.0674 14.8859L56.1602 14.6973C56.1851 14.517 56.2034 14.3711 56.2151 14.2596C56.2341 14.1351 56.253 14.0107 56.272 13.8863C56.2822 13.8076 56.2889 13.7354 56.2919 13.6696C56.3021 13.5909 56.3102 13.5237 56.3161 13.4679C56.2559 13.4849 56.2022 13.5055 56.1549 13.5297C56.1048 13.5438 56.0561 13.563 56.0088 13.5872C55.9515 13.6142 55.8992 13.6398 55.8519 13.664C55.8018 13.6782 55.7517 13.6924 55.7016 13.7065C55.6314 13.7264 55.5799 13.7355 55.547 13.734C55.4509 13.8153 55.3377 13.8743 55.2074 13.9112L55.057 13.9537C55.0269 13.9622 54.9969 13.9707 54.9668 13.9792C54.9439 13.9748 54.9224 13.9755 54.9024 13.9811C54.8022 14.0095 54.7262 14.0472 54.6746 14.0943C54.5543 14.1283 54.439 14.1608 54.3287 14.192L54.1784 14.2345C54.1583 14.2402 54.1347 14.2523 54.1075 14.2708C54.0774 14.2793 54.0523 14.2864 54.0323 14.292C53.9621 14.3119 53.8855 14.3281 53.8025 14.3408C53.7166 14.3434 53.6215 14.3324 53.5171 14.3078C53.3515 14.1814 53.2472 14.1188 53.2043 14.1201L53.018 13.978C52.991 13.9207 52.9603 13.8698 52.9261 13.8253C52.8891 13.7708 52.8506 13.7114 52.8107 13.6469C52.7423 13.5579 52.6725 13.464 52.6012 13.3651C52.5371 13.2533 52.4824 13.1172 52.4371 12.9568C52.4244 12.8738 52.4275 12.808 52.4462 12.7594C52.465 12.7108 52.4801 12.6687 52.4917 12.6329L52.473 12.3946L52.6727 12.3544L53.0937 12.2354C53.4145 12.1447 53.7374 12.0426 54.0626 11.9291C54.3849 11.8055 54.7172 11.6791 55.0595 11.5499C55.2543 11.4732 55.4491 11.3964 55.6439 11.3197C55.8488 11.2402 56.0586 11.1592 56.2735 11.0768C56.2881 10.9753 56.3041 10.8787 56.3215 10.7872L56.4506 10.6695C56.6282 10.6085 56.7606 10.5982 56.8478 10.6385C56.9421 10.6659 57.0215 10.6976 57.0857 10.7336C57.3006 10.6512 57.5155 10.5688 57.7303 10.4864C57.9524 10.3912 58.173 10.2909 58.3922 10.1857C58.7189 10.0392 59.0469 9.89778 59.3764 9.76135C59.7159 9.62208 60.046 9.50712 60.3668 9.41645C60.5071 9.37678 60.6439 9.34355 60.777 9.31674C60.9102 9.28993 61.0347 9.27096 61.1506 9.25984L61.3308 9.32259C61.3778 9.37424 61.4335 9.41803 61.4978 9.45399C61.5721 9.48711 61.6464 9.52023 61.7207 9.55335C61.8722 9.62961 62.0293 9.72592 62.1921 9.84228C62.3549 9.95864 62.4623 10.1664 62.5144 10.4656C62.4682 10.6086 62.4279 10.6957 62.3935 10.7271L62.3092 10.9458L62.1545 10.9733C62.0944 10.9903 62.0421 11.0159 61.9977 11.0501C61.9504 11.0743 61.9045 11.1035 61.86 11.1377C61.8256 11.1691 61.7912 11.2004 61.7568 11.2318C61.7195 11.2532 61.6772 11.276 61.6299 11.3002C61.5397 11.3257 61.4645 11.3469 61.4044 11.3639C61.3514 11.368 61.2949 11.3786 61.2348 11.3956ZM60.4343 12.1252C60.4449 11.8949 60.5042 11.6833 60.6121 11.4904C60.7299 11.2947 60.8649 11.1213 61.017 10.97C61.1763 10.8059 61.3463 10.6605 61.5269 10.5336C61.7076 10.4068 61.881 10.2928 62.0473 10.1917C62.4001 9.90797 62.7808 9.62717 63.1893 9.34931C63.6051 9.05859 64.0316 8.7865 64.4687 8.53305C64.9158 8.27676 65.3858 8.06275 65.8784 7.89101C66.3683 7.70924 66.9116 7.62063 67.5082 7.62518C67.5666 7.71692 67.6386 7.7994 67.7243 7.87261C67.8099 7.94583 67.8956 8.01904 67.9812 8.09226C68.0769 8.16264 68.1625 8.23586 68.2382 8.3119C68.3109 8.37793 68.3651 8.45463 68.4006 8.54201C68.5264 8.60389 68.6349 8.68147 68.7262 8.77473C68.8147 8.85797 68.8629 8.99046 68.871 9.1722C68.7934 9.28072 68.7145 9.38424 68.634 9.48274C68.5608 9.56838 68.4762 9.65185 68.3801 9.73313C67.9837 9.74775 67.5993 9.82393 67.2269 9.96167C66.8545 10.0994 66.5208 10.2208 66.2257 10.3259C66.11 10.2611 65.987 10.2472 65.8567 10.284C65.7364 10.318 65.6117 10.3749 65.4827 10.4547C65.3638 10.5316 65.2398 10.61 65.1108 10.6897C64.9918 10.7666 64.8693 10.8121 64.7434 10.826C64.6658 10.9346 64.5561 11.0251 64.4142 11.0977C64.2795 11.1574 64.1298 11.2214 63.9651 11.2896C63.9692 11.3425 63.9892 11.3748 64.0249 11.3863C64.0578 11.3879 64.0713 11.4165 64.0655 11.4723C64.1454 11.5255 64.2348 11.5543 64.3335 11.5589C64.4422 11.5606 64.551 11.5624 64.6597 11.5641C64.7785 11.563 64.885 11.5762 64.9794 11.6037C65.0709 11.6211 65.1459 11.6757 65.2043 11.7674C65.3547 11.7249 65.4949 11.7232 65.625 11.7622C65.7551 11.8012 65.8694 11.8609 65.9679 11.9413C66.0664 12.0217 66.1477 12.1178 66.2117 12.2296C66.283 12.3285 66.3314 12.4231 66.3569 12.5133C66.4096 12.585 66.4546 12.6101 66.4919 12.5888C66.5291 12.5674 66.5799 12.5747 66.6442 12.6107C66.7111 12.7325 66.8245 12.8465 66.9845 12.9529C67.1416 13.0492 67.2779 13.1676 67.3934 13.3082C67.4843 13.5531 67.5631 13.7744 67.6298 13.972C67.6936 14.1597 67.7138 14.365 67.6903 14.5882C67.6448 15.0016 67.5278 15.3919 67.3393 15.7591C67.1608 16.1234 66.9338 16.469 66.6581 16.7959C66.3897 17.11 66.0877 17.401 65.7521 17.669C65.4165 17.9371 65.0839 18.1773 64.7542 18.3895C64.7113 18.3908 64.6712 18.4022 64.6339 18.4235C64.5966 18.4449 64.5795 18.4226 64.5826 18.3568C64.5222 18.4497 64.4448 18.5203 64.3502 18.5687C64.2656 18.6142 64.1668 18.6476 64.0537 18.6687C63.9434 18.6999 63.8268 18.7274 63.7036 18.7514C63.5905 18.7726 63.4867 18.8073 63.3921 18.8557C63.3021 18.8054 63.2171 18.7536 63.1372 18.7004C63.07 18.6545 63.0073 18.5856 62.9489 18.4939C62.8988 18.508 62.8666 18.4901 62.8524 18.4399C62.8483 18.387 62.8262 18.3662 62.7861 18.3775C62.8179 18.2603 62.8274 18.1981 62.8145 18.1909C62.8089 18.1708 62.7896 18.16 62.7567 18.1585C62.7338 18.1542 62.7109 18.1498 62.688 18.1454C62.6623 18.1311 62.6502 18.1074 62.6517 18.0745C62.6692 17.983 62.6587 17.8885 62.6203 17.7911C62.5791 17.6837 62.538 17.5763 62.4968 17.4688C62.4556 17.3614 62.4308 17.2547 62.4226 17.1488C62.4243 17.0401 62.4768 16.9386 62.5801 16.8445C62.9322 16.7883 63.2502 16.6876 63.5339 16.5424C63.8248 16.3844 64.0886 16.207 64.3252 16.0102C64.5619 15.8135 64.7806 15.6109 64.9815 15.4026C65.1925 15.1914 65.4026 14.9967 65.6121 14.8184C65.6166 14.7197 65.6355 14.6332 65.6686 14.5589C65.7117 14.4817 65.7563 14.4096 65.8023 14.3425C65.8482 14.2754 65.8878 14.2046 65.9209 14.1303C65.954 14.056 65.9679 13.9709 65.9624 13.875C65.9526 13.802 65.9212 13.7676 65.8683 13.7717C65.8225 13.763 65.7911 13.7286 65.7741 13.6685L65.596 13.6701C65.3744 13.6137 65.1333 13.5844 64.8729 13.5822C64.6097 13.57 64.3801 13.5429 64.1842 13.5009C64.091 13.5922 63.9899 13.637 63.8812 13.6352C63.7825 13.6306 63.6537 13.6346 63.4948 13.647C63.1484 13.7233 62.8077 13.7817 62.4727 13.8223C62.1478 13.86 61.8216 13.8548 61.4941 13.8066C61.4599 13.7622 61.4221 13.7241 61.3806 13.6925C61.3392 13.6609 61.2813 13.6665 61.2068 13.7092C61.1239 13.646 61.0425 13.5878 60.9626 13.5347C60.8798 13.4715 60.8005 13.4019 60.7249 13.3258C60.711 13.1999 60.6977 13.0954 60.685 13.0123C60.6696 12.9193 60.6154 12.8426 60.5226 12.7822C60.5258 12.6406 60.5261 12.5268 60.5235 12.441C60.5209 12.3551 60.4912 12.2499 60.4343 12.1252Z" fill="#535353"/>
<path d="M43.6186 35.86C41.1675 41.831 41.8195 48.4811 43.4918 53.8138C45.094 58.7665 47.7908 63.0014 51.2075 66.3472C54.6242 69.693 58.7279 72.2218 63.1894 73.7394C68.4041 75.5144 74.0177 76.036 79.7133 75.7685C85.4831 75.4914 91.306 74.4119 97.1043 72.9296C97.8203 72.7349 98.5651 72.5533 99.2811 72.3586C100.355 72.0665 100.342 70.1899 99.2683 70.4819C93.6141 72.0301 87.9476 73.2246 82.2849 73.7247C76.7416 74.1923 71.231 73.9789 66.0864 72.584C61.6373 71.4201 57.4843 69.3039 53.9648 66.2591C50.5276 63.339 47.6911 59.5623 45.8338 55.0151C44.9113 52.7661 44.2769 50.3442 43.9429 47.7986C43.5511 44.922 43.5544 41.791 44.3314 38.7962C44.5452 38.0238 44.7713 37.3006 45.0716 36.5677C45.528 35.3407 44.0875 34.6821 43.6186 35.86Z" fill="#4B4B4B"/>
<path d="M87.0286 64.4085C89.9879 65.9355 92.9761 67.4757 95.9355 69.0027C97.0263 69.5884 98.2611 70.2399 98.6195 71.6655C98.912 72.9304 98.5174 74.4032 97.8839 75.6363C96.9255 77.5041 95.3415 78.9117 93.9097 80.2149C93.0169 81.0249 93.828 82.5269 94.7373 81.6809C97.4322 79.2149 100.559 76.0327 100.385 71.9941C100.302 70.0419 99.3183 68.7655 97.9765 67.8909C96.5646 66.9409 94.9636 66.2524 93.4406 65.4692C91.5884 64.4919 89.7486 63.5637 87.8964 62.5864C86.9456 62.1517 86.123 63.951 87.0286 64.4085Z" fill="#4B4B4B"/>
</svg>
