<svg width="205" height="188"  viewBox="0 0 245 228" fill="none" xmlns="http://www.w3.org/2000/svg">
<path d="M0.00697351 218.378C2.77063 180.596 12.0288 144.925 26.8144 116.295C41.7381 87.1956 62.1891 66.779 84.1601 57.8614C104.473 49.6478 129.208 49.1785 147.033 70.5338C155.6 80.8594 161.819 95.6439 164.444 113.01C166.931 129.672 166.379 147.741 162.924 163.934C155.6 197.962 136.117 220.49 115.527 226.122C105.026 228.939 93.5565 228.704 84.0219 219.786C73.6582 210.165 69.2364 190.687 67.0255 172.148C62.88 137.181 66.7491 99.6333 77.3891 68.8911C88.1674 37.6795 105.993 15.3855 126.444 5.5292C146.619 -4.09243 168.451 -1.27634 187.106 14.9161C205.07 30.4046 219.441 57.3921 227.317 88.8384C229.252 96.3479 230.633 104.327 231.739 112.306C232.706 119.581 226.073 122.866 225.106 115.356C221.237 84.8489 210.597 57.1574 196.088 38.1488C181.026 18.4363 162.371 9.28396 143.44 12.1C124.509 14.6814 106.131 29.2312 93.1419 52.9333C80.1528 76.6353 72.8291 109.02 72.4146 141.405C72.2764 157.598 73.6582 174.729 77.3891 189.513C79.4619 197.258 82.3637 204.298 86.6473 208.757C90.6546 212.746 95.2146 214.858 99.9129 215.562C118.567 218.378 139.018 205.002 150.349 179.422C161.128 155.016 162.648 118.642 151.593 93.7665C139.709 67.0137 117.186 62.3202 98.9456 65.6057C78.2182 69.1258 58.0436 83.9102 42.2908 106.908C26.6761 129.672 15.3452 160.414 9.8179 194.207C8.57425 202.186 7.46883 210.399 6.91609 218.613C6.63974 221.664 5.53427 224.48 3.46153 224.48C1.80334 224.245 -0.13121 221.429 0.00697351 218.378Z" fill="#8759CF" fill-opacity="0.04"/>
<path d="M244.313 97.2867C242.379 102.684 240.306 108.082 238.233 113.01C237.128 115.826 235.884 118.407 234.64 120.989C233.535 123.57 232.291 125.917 230.495 127.09C226.349 129.906 222.619 123.101 219.579 119.111C216.539 115.122 213.775 110.898 211.011 106.439C207.833 101.041 212.669 92.8279 215.848 98.2254C218.059 101.98 220.408 105.5 222.757 108.786C223.862 110.428 225.106 111.836 226.211 113.479C226.764 114.183 227.455 115.122 228.008 115.826C228.146 116.061 228.422 116.295 228.56 116.53C228.422 116.53 228.284 116.53 228.146 116.295C227.869 116.295 227.731 116.53 227.455 116.53C227.731 116.295 227.869 116.061 227.731 116.295C229.113 112.775 231.186 108.786 232.844 105.031C234.64 100.572 236.437 96.1133 238.095 91.4198C240.72 85.0836 246.662 90.9505 244.313 97.2867Z" fill="#8759CF" fill-opacity="0.04"/>
</svg>
