<svg width="906" height="204" viewBox="0 0 906 204" fill="none" xmlns="http://www.w3.org/2000/svg">
<path fill-rule="evenodd" clip-rule="evenodd" d="M846.911 0.576505C777.332 2.92929 698.708 9.7041 620.736 20.0641C486.209 37.9398 404.113 52.0961 284.728 78.005C258.674 83.6594 217.916 92.3717 194.154 97.3669C140.317 108.683 118.337 113.777 81.977 123.366C38.4968 134.834 20.9739 141.635 5.14684 153.185C-0.534341 157.331 -1.84923 158.853 2.90487 155.78C23.7036 142.336 81.191 126.53 191.811 103.842C215.431 98.9979 249.396 91.9701 267.289 88.2256C379.944 64.6512 445.171 53.7882 566.86 38.3323C657.082 26.8733 698.466 22.7043 767.529 18.1184C812.461 15.1345 868.85 12.7375 867.212 13.8808C865.657 14.9661 801.96 23.1013 732.653 31.0666C714.186 33.1893 684.672 36.6175 667.064 38.6852C649.457 40.7537 627.204 43.3252 617.613 44.4014C569.191 49.8318 491.919 59.3931 423.452 68.4262C272.41 88.3536 193.211 105.097 116.593 133.3C84.0045 145.296 78.3333 148.486 78.3333 154.821C78.3333 163.886 81.4169 163.623 148.866 148.807C287.884 118.272 424.229 100.659 564.778 95.0819C643.416 91.9609 762.019 92.733 759.549 96.3487C758.949 97.2282 650 116.568 588.463 126.72C544.231 134.016 491.628 144.106 431.52 156.821C387.301 166.176 325.352 182.752 311.94 188.817C306.368 191.337 304.226 196.772 307.048 201.23C310.081 206.023 320.861 204.997 372.699 194.984C486.641 172.973 548.442 165.539 639.476 162.892C654.22 162.464 672.725 161.576 680.599 160.92C697.245 159.531 720.595 159.388 733.894 160.593C739.015 161.058 743.28 161.325 743.374 161.188C743.527 160.964 730.416 158.664 698.817 153.372C678.618 149.988 675.29 149.768 638.955 149.4C575.194 148.754 535.992 151.974 469.377 163.329C437.235 168.807 441.169 167.572 481.752 159.443C515.548 152.673 558.608 144.772 589.504 139.673C628.085 133.303 685.004 123.561 698.557 121.006C705.142 119.764 722.476 116.501 737.077 113.754C781.844 105.33 785.333 104.207 786.791 97.7381C788.762 88.9976 782.273 85.6998 757.639 82.924C724.623 79.2031 612.191 79.9653 534.587 84.4361C393.259 92.5775 277.125 109.209 127.004 142.805C122.136 143.894 126.285 142.052 135.91 138.851C231.113 107.184 317.777 92.7352 617.873 58.4983C727.079 46.0393 841.324 31.152 875.801 24.8878C901.598 20.2013 908.229 16.2152 905.392 7.09826C903.283 0.321141 891.923 -0.945527 846.911 0.576505ZM446.485 167.229C446.128 167.441 445.542 167.441 445.184 167.229C444.827 167.018 445.119 166.845 445.835 166.845C446.551 166.845 446.844 167.018 446.485 167.229Z" fill="#C8C8C8"/>
</svg>
