<svg width="279" height="91" viewBox="0 0 279 91" fill="none" xmlns="http://www.w3.org/2000/svg">
<path d="M0.00764618 3.12521C1.05477 24.4604 14.9292 43.5705 30.3743 57.3141C44.9033 70.0105 62.3118 79.042 80.8983 84.4085C99.4848 89.7751 119.249 91.7384 138.621 90.1677C161.265 88.3353 183.255 82.1834 204.198 73.5446C225.402 64.7749 245.428 53.5183 264.669 41.0836C267.025 39.5129 269.512 37.9422 271.868 36.3715C275.402 34.0155 272.13 28.3872 268.596 30.7432C250.01 43.1779 230.769 54.5654 210.35 63.8586C190.323 72.8901 169.25 79.8273 147.522 82.7069C128.804 85.3248 109.563 84.6703 91.1078 80.3509C73.1758 76.2933 56.029 68.8325 41.2383 57.7068C33.9084 52.2094 27.3639 45.7957 21.7356 38.5967C15.3219 30.4814 9.95536 21.0573 7.73021 10.9787C7.20665 8.36085 6.81399 5.87393 6.6831 3.25611C6.29042 -1.0633 -0.254136 -1.0633 0.00764618 3.12521Z" fill="#4B4B4B"/>
<path d="M212.182 29.3033C225.925 29.8269 239.8 30.3505 253.543 30.874C258.648 31.1358 264.407 31.3976 268.203 35.1934C271.475 38.5966 272.523 43.5704 272.261 48.1516C271.868 55.0888 268.334 61.5025 265.193 67.3926C263.229 71.0576 268.858 74.4607 270.821 70.6649C276.711 59.5392 282.994 45.6647 275.402 33.7536C271.737 27.9944 265.847 25.5075 259.303 24.7221C252.365 23.8059 245.166 23.9368 238.098 23.675C229.459 23.2823 220.952 23.0205 212.313 22.6279C207.993 22.6279 207.993 29.1724 212.182 29.3033Z" fill="#4B4B4B"/>
</svg>
