<svg width="473" height="402" viewBox="0 0 473 402" fill="none" xmlns="http://www.w3.org/2000/svg">
<g clip-path="url(#clip0_30_7)">
<path d="M468.85 153.733C468.681 153.733 468.515 153.684 468.376 153.592L238.881 2.27219C238.183 1.81384 237.353 1.56889 236.503 1.57026C235.653 1.57163 234.824 1.81926 234.127 2.27986L6.28511 153.591C6.10489 153.71 5.88185 153.757 5.66504 153.721C5.44823 153.685 5.25541 153.569 5.129 153.399C5.0026 153.228 4.95296 153.017 4.99101 152.811C5.02906 152.606 5.15169 152.424 5.3319 152.304L233.174 0.993197C234.15 0.348449 235.311 0.00186619 236.5 1.50834e-05C237.69 -0.00183603 238.852 0.341131 239.83 0.982839L469.325 152.302C469.47 152.398 469.579 152.535 469.636 152.693C469.693 152.852 469.695 153.023 469.642 153.183C469.589 153.342 469.484 153.482 469.341 153.581C469.199 153.68 469.027 153.733 468.85 153.733L468.85 153.733Z" fill="#3F3D56"/>
<path d="M19.3047 159.097L236.729 6.53587L455.802 169.952L247.931 286.622L135.075 262.267L19.3047 159.097Z" fill="#E6E6E6"/>
<path d="M144.602 358.684H37.1888C36.5292 358.685 35.876 358.562 35.2664 358.324C34.6568 358.086 34.1028 357.736 33.6362 357.294C33.1695 356.853 32.7993 356.329 32.5467 355.752C32.2941 355.176 32.1641 354.557 32.1641 353.933C32.1641 353.308 32.2941 352.69 32.5467 352.113C32.7993 351.536 33.1695 351.012 33.6362 350.571C34.1028 350.13 34.6568 349.78 35.2664 349.541C35.876 349.303 36.5292 349.181 37.1888 349.182H144.602C145.261 349.181 145.914 349.303 146.524 349.541C147.133 349.78 147.687 350.13 148.154 350.571C148.621 351.012 148.991 351.536 149.244 352.113C149.496 352.69 149.626 353.308 149.626 353.933C149.626 354.557 149.496 355.176 149.244 355.752C148.991 356.329 148.621 356.853 148.154 357.294C147.687 357.736 147.133 358.086 146.524 358.324C145.914 358.562 145.261 358.685 144.602 358.684V358.684Z" fill="#55FF99"/>
<path d="M75.7261 338.257H37.1888C36.5292 338.258 35.876 338.135 35.2664 337.897C34.6568 337.659 34.1028 337.309 33.6362 336.867C33.1695 336.426 32.7993 335.902 32.5467 335.325C32.2941 334.748 32.1641 334.13 32.1641 333.506C32.1641 332.881 32.2941 332.263 32.5467 331.686C32.7993 331.109 33.1695 330.585 33.6362 330.144C34.1028 329.703 34.6568 329.353 35.2664 329.114C35.876 328.876 36.5292 328.754 37.1888 328.755H75.7261C76.3856 328.754 77.0389 328.876 77.6485 329.114C78.2581 329.353 78.812 329.703 79.2787 330.144C79.7454 330.585 80.1156 331.109 80.3682 331.686C80.6208 332.263 80.7508 332.881 80.7508 333.506C80.7508 334.13 80.6208 334.748 80.3682 335.325C80.1156 335.902 79.7454 336.426 79.2787 336.867C78.812 337.309 78.2581 337.659 77.6485 337.897C77.0389 338.135 76.3856 338.258 75.7261 338.257Z" fill="#55FF99"/>
<path d="M239.785 244.071C238.969 244.072 238.16 243.922 237.405 243.63L103.312 190.952V26.0638C103.314 24.6058 103.927 23.2079 105.016 22.1769C106.105 21.1459 107.581 20.5659 109.121 20.5642H366.367C367.907 20.5659 369.383 21.1459 370.472 22.1769C371.561 23.2079 372.174 24.6058 372.176 26.0638V191.068L371.924 191.17L242.238 243.604C241.462 243.913 240.628 244.072 239.785 244.071Z" fill="white"/>
<path d="M239.786 244.464C238.916 244.465 238.053 244.305 237.247 243.993L102.898 191.215V26.0638C102.9 24.5016 103.557 23.0039 104.723 21.8992C105.89 20.7945 107.472 20.1732 109.122 20.1714H366.368C368.018 20.1732 369.6 20.7945 370.766 21.8992C371.933 23.0039 372.59 24.5016 372.591 26.0638V191.327L242.402 243.965C241.574 244.295 240.685 244.464 239.786 244.464V244.464ZM104.558 190.165L237.88 242.541C239.124 243.018 240.516 243.01 241.754 242.519L370.932 190.29V26.0638C370.93 24.9182 370.449 23.8199 369.593 23.0098C368.738 22.1998 367.578 21.7441 366.368 21.7427H109.122C107.912 21.7441 106.752 22.1998 105.896 23.0098C105.041 23.8199 104.56 24.9182 104.558 26.0638L104.558 190.165Z" fill="#3F3D56"/>
<path d="M467.191 152.162H467.025L371.761 190.674L241.421 243.368C240.912 243.571 240.365 243.677 239.813 243.68C239.26 243.682 238.712 243.582 238.201 243.384L103.728 190.564L6.12401 152.225L5.9749 152.162H5.80877C4.26871 152.163 2.79222 152.743 1.70323 153.774C0.614246 154.805 0.00170882 156.203 0 157.661V396.5C0.00171101 397.959 0.614247 399.356 1.70323 400.387C2.79222 401.418 4.26872 401.998 5.80877 402H467.191C468.731 401.998 470.208 401.418 471.297 400.387C472.386 399.356 472.998 397.959 473 396.5V157.661C472.998 156.203 472.386 154.805 471.297 153.774C470.208 152.743 468.731 152.163 467.191 152.162V152.162ZM471.34 396.5C471.34 397.542 470.903 398.541 470.125 399.278C469.347 400.014 468.292 400.428 467.191 400.429H5.80877C4.70849 400.428 3.65341 400.014 2.87539 399.278C2.09737 398.541 1.66009 397.542 1.65965 396.5V157.661C1.66115 156.645 2.07735 155.669 2.82122 154.937C3.56509 154.205 4.57905 153.774 5.65115 153.733L103.728 192.261L237.562 244.838C239.011 245.396 240.634 245.387 242.077 244.814L371.761 192.379L467.357 153.733C468.428 153.777 469.439 154.209 470.181 154.941C470.923 155.673 471.338 156.647 471.34 157.661V396.5Z" fill="#3F3D56"/>
<path d="M238.445 197.315C233.495 197.324 228.676 195.808 224.715 192.997L224.469 192.822L172.762 155.341C170.368 153.604 168.358 151.437 166.848 148.964C165.337 146.492 164.356 143.762 163.96 140.93C163.564 138.099 163.762 135.221 164.54 132.462C165.319 129.702 166.664 127.115 168.499 124.848C170.334 122.581 172.622 120.678 175.234 119.248C177.845 117.818 180.729 116.89 183.719 116.515C186.71 116.14 189.749 116.326 192.664 117.064C195.579 117.801 198.311 119.075 200.706 120.812L234.198 145.126L313.345 47.4009C315.18 45.1343 317.47 43.2322 320.082 41.8032C322.694 40.3742 325.577 39.4463 328.568 39.0725C331.559 38.6987 334.598 38.8864 337.513 39.6247C340.427 40.363 343.159 41.6376 345.553 43.3756L345.061 44.0082L345.566 43.3848C350.395 46.8987 353.555 52.0827 354.352 57.7995C355.149 63.5163 353.518 69.2989 349.817 73.8788L256.722 188.827C254.568 191.476 251.8 193.619 248.63 195.091C245.461 196.563 241.976 197.324 238.445 197.315V197.315Z" fill="#55FF99"/>
</g>
<defs>
<clipPath id="clip0_30_7">
<rect width="473" height="402" fill="white"/>
</clipPath>
</defs>
</svg>
